<svg width="82" height="73" viewBox="0 0 82 73" fill="none" xmlns="http://www.w3.org/2000/svg">
<g clip-path="url(#clip0_1122_15773)">
<mask id="mask0_1122_15773" style="mask-type:luminance" maskUnits="userSpaceOnUse" x="0" y="0" width="82" height="73">
<path d="M81.9396 0.827515H0.267578V72.4926H81.9396V0.827515Z" fill="white"/>
</mask>
<g mask="url(#mask0_1122_15773)">
<mask id="mask1_1122_15773" style="mask-type:luminance" maskUnits="userSpaceOnUse" x="0" y="0" width="82" height="73">
<path d="M81.9396 0.827515H0.267578V72.4926H81.9396V0.827515Z" fill="white"/>
</mask>
<g mask="url(#mask1_1122_15773)">
<mask id="mask2_1122_15773" style="mask-type:luminance" maskUnits="userSpaceOnUse" x="0" y="0" width="82" height="73">
<path d="M81.9396 0.827515H0.267578V72.4926H81.9396V0.827515Z" fill="white"/>
</mask>
<g mask="url(#mask2_1122_15773)">
<path d="M20.7536 1.00821C20.3011 1.12666 20.0459 1.30433 19.6282 1.76627C19.3266 2.09792 19.025 2.5717 18.9554 2.82044C18.7929 3.43636 18.7929 19.4384 18.967 20.0543C19.1178 20.611 19.7675 21.3691 20.3939 21.7126C20.8696 21.9732 20.9044 21.9732 28.9788 22.0087C38.132 22.0442 37.8883 22.0679 38.7585 21.2033C39.6634 20.3031 39.6401 20.5637 39.6519 11.4907C39.6634 2.33481 39.6982 2.70199 38.747 1.70704C38.2596 1.19772 38.051 1.06743 37.5403 0.960834C36.5776 0.759475 21.5192 0.795009 20.7536 1.00821ZM37.7259 1.78996C38.0277 1.94394 38.3524 2.24005 38.5381 2.52432L38.8513 3.00995L38.8861 11.2894C38.9093 19.5806 38.9093 19.5806 38.6656 20.1136C38.4918 20.4571 38.2366 20.7532 37.8883 20.9782L37.3546 21.3217H29.2224H21.09L20.5679 20.9782C20.2083 20.7532 19.9647 20.4689 19.7907 20.0899C19.5354 19.545 19.5354 19.5213 19.5354 11.4078V3.25869L19.8603 2.6783C20.0807 2.27558 20.3243 2.015 20.6955 1.82549L21.2176 1.54122H29.2108C37.1227 1.54122 37.2156 1.54122 37.7259 1.78996Z" fill="#6E767A"/>
<path d="M44.4087 0.937131C43.5733 1.15033 42.8658 1.86101 42.6221 2.73751C42.483 3.2113 42.4712 19.0949 42.6106 19.924C42.7264 20.6466 43.2371 21.3928 43.8285 21.7126C44.3044 21.9732 44.3273 21.9732 52.692 22.0087C58.3648 22.0324 61.2302 21.9968 61.5434 21.9139C62.1122 21.76 62.7383 21.2033 63.0748 20.5636L63.33 20.078V11.4315C63.33 3.22314 63.3185 2.7612 63.1096 2.37033C62.8311 1.83732 62.3788 1.33985 61.938 1.09111C61.6248 0.913441 60.7779 0.889755 53.1791 0.866065C48.5503 0.85422 44.6058 0.889755 44.4087 0.937131Z" fill="#6E767A"/>
<path d="M20.7306 25.1119C20.0578 25.2659 19.4777 25.7515 19.0948 26.474C18.9208 26.7938 18.8976 27.6821 18.8628 35.4049C18.828 44.9042 18.8164 44.7147 19.5705 45.4611C20.4058 46.29 19.9649 46.2545 29.0602 46.29C37.1115 46.3258 37.2739 46.3137 37.9003 46.077C38.6659 45.7809 39.2924 45.1292 39.5128 44.3948C39.6289 43.9923 39.6637 42.0617 39.6637 35.5352V27.1847L39.3852 26.5688C39.0952 25.9055 38.5616 25.408 37.877 25.1592C37.5523 25.0408 35.6614 25.0052 29.2807 25.0052C24.7794 25.0171 20.9278 25.0526 20.7306 25.1119Z" fill="#6E767A"/>
<path d="M44.3267 25.1475C43.7353 25.337 43.1317 25.8581 42.8185 26.4504L42.5633 26.9478L42.5286 35.3932C42.5053 40.9366 42.5404 43.9803 42.6214 44.2767C42.807 44.9873 43.3754 45.7097 43.9904 45.994C44.5356 46.2545 44.5704 46.2545 52.9465 46.2545H61.3574L61.9488 45.9347C62.6681 45.5559 63.1207 44.8925 63.2831 44.0041C63.3526 43.6016 63.3874 40.2969 63.3644 35.1561L63.3293 26.9478L63.0161 26.403C62.6451 25.7515 62.0997 25.3014 61.4732 25.1238C60.8005 24.9342 44.9302 24.958 44.3267 25.1475Z" fill="#6E767A"/>
<path d="M75.93 52.7482C72.1249 53.2931 69.1201 56.1831 68.2847 60.0919C68.0295 61.3236 68.0295 64.2137 68.2965 65.4574C68.5169 66.4761 69.0853 67.8502 69.619 68.6556C71.3705 71.2375 74.7699 72.6233 78.3779 72.197C79.5377 72.055 81.4289 71.5101 81.7769 71.2137C81.8927 71.119 81.9393 70.7874 81.9393 70.0885C81.9393 68.9516 81.9278 68.9395 81.0462 69.3779C79.4452 70.1833 76.9626 70.4321 75.3265 69.9348C71.7188 68.833 69.9785 65.5877 70.5816 61.0748C70.8372 59.1325 71.3823 57.9597 72.6005 56.7159C73.9692 55.3185 75.3964 54.7616 77.612 54.7616C79.0969 54.7616 79.7932 54.8918 80.9881 55.3657C81.4519 55.5552 81.858 55.7093 81.8812 55.7093C81.916 55.7093 81.9393 55.1999 81.9393 54.5841C81.9393 53.5536 81.916 53.4468 81.6841 53.2931C80.9763 52.831 77.5772 52.5111 75.93 52.7482Z" fill="#6E767A"/>
<path d="M6.94982 53.8973C6.13776 56.1477 5.92892 56.7043 5.25606 58.4929C4.86161 59.5351 4.38597 60.8144 4.20036 61.3354C4.01474 61.8568 3.80591 62.3896 3.74792 62.5199C3.67831 62.6502 3.5275 63.0531 3.41149 63.4084C3.28386 63.7637 2.99385 64.5574 2.77342 65.1494C2.5414 65.7536 2.17017 66.7485 1.93814 67.3409C1.71772 67.945 1.40449 68.7859 1.25368 69.2122C1.10286 69.6385 0.824435 70.4084 0.627215 70.9299C0.429995 71.4509 0.267578 71.8893 0.267578 71.901C0.267578 71.9248 0.812833 71.9365 1.4741 71.9365C2.29778 71.9365 2.71542 71.8893 2.79663 71.7825C2.85463 71.7115 2.98225 71.3679 3.08665 71.0481C3.28386 70.385 3.95672 68.4306 4.31637 67.4357C4.45558 67.0804 4.55998 66.7723 4.55998 66.7605C4.55998 66.7368 6.34656 66.7368 8.5276 66.7485L12.4952 66.784L13.4233 69.3542L14.3629 71.9365H15.6159C16.3003 71.9365 16.8572 71.9127 16.8572 71.8893C16.8572 71.83 15.9755 69.4373 15.175 67.3171C14.943 66.7013 14.6298 65.8483 14.479 65.422C14.3281 64.9957 14.0497 64.2493 13.8641 63.7637C13.6785 63.2781 13.2028 62.0226 12.82 60.9801C12.4256 59.938 11.7063 58.0191 11.219 56.716C10.7318 55.4134 10.2329 54.0393 10.1053 53.6602L9.87332 52.9851H8.58559H7.28625L6.94982 53.8973ZM9.07283 57.1306C9.21204 57.5573 9.36285 58.0074 9.43249 58.1376C9.49048 58.2679 9.80372 59.1443 10.1285 60.092C10.4534 61.0394 10.7782 61.9396 10.8478 62.1053C11.0682 62.6267 11.6367 64.3916 11.6367 64.5573C11.6367 64.6759 11.0102 64.7114 8.50438 64.7114C6.07973 64.7114 5.37207 64.6759 5.37207 64.5573C5.37207 64.4271 5.84771 63.0293 6.64819 60.8026C6.84542 60.2457 7.15866 59.3693 7.34427 58.8482C8.45796 55.6384 8.45796 55.6384 8.68999 56.0885C8.75959 56.2425 8.93363 56.7043 9.07283 57.1306Z" fill="#6E767A"/>
<path d="M19.7578 62.461V71.9482L20.8947 71.9127L22.02 71.8772L22.0548 68.3713L22.0781 64.8534L24.143 64.7941C25.9296 64.7469 26.3125 64.6993 27.0897 64.4388C28.2035 64.0718 28.9343 63.5979 29.758 62.7215C30.5701 61.8569 30.9413 61.1104 31.1966 59.8549C31.7766 56.8822 30.5469 54.4301 27.9366 53.388L27.1245 53.0561L23.447 53.0089L19.7578 52.9734V62.461ZM26.4981 55.2355C28.0642 55.7094 28.8183 56.7519 28.8995 58.5402C28.9575 59.867 28.5863 60.9212 27.7974 61.6318C26.9041 62.4372 26.2661 62.6147 24.027 62.674L22.0781 62.7215V58.86V54.9988H23.8878C25.3728 54.9988 25.8484 55.046 26.4981 55.2355Z" fill="#6E767A"/>
<path d="M33.0986 53.9921V54.9988L35.7436 55.0225L38.3771 55.058L38.4119 63.5031L38.4352 71.9482L39.572 71.9127L40.6974 71.8772L40.7322 63.4321L40.7555 54.9988H43.4237H46.092V53.9921V52.9851H39.5953H33.0986V53.9921Z" fill="#6E767A"/>
<path d="M49.1084 62.461V71.9365H50.5004H51.881L52.4379 71.0363C52.7512 70.5508 53.5167 69.3308 54.1547 68.3238C54.793 67.3171 55.7556 65.8011 56.3011 64.9364C57.8325 62.5082 58.8766 60.8619 59.8163 59.3814C60.2919 58.6349 60.9298 57.6283 61.2198 57.1544C61.5216 56.6926 61.8115 56.3018 61.8696 56.3018C61.9391 56.3018 61.9857 59.2508 61.9857 64.119V71.9482L63.1225 71.9127L64.2479 71.8772L64.2827 62.4251L64.306 52.9851H62.8208H61.3359L60.5238 54.2526C60.0715 54.9633 59.3984 56.0054 59.0389 56.5978C58.6676 57.1782 58.0297 58.1969 57.6236 58.8483C56.3359 60.8853 55.4657 62.2594 54.9438 63.0768C53.6909 65.0784 53.3891 65.564 52.6351 66.7605C52.1942 67.4712 51.7419 68.158 51.6373 68.3003C51.4516 68.5488 51.4402 68.158 51.4287 60.7671V52.9851H50.2685H49.1084V62.461Z" fill="#6E767A"/>
</g>
</g>
</g>
</g>
<defs>
<clipPath id="clip0_1122_15773">
<rect width="82" height="72" fill="white" transform="translate(0 0.5)"/>
</clipPath>
</defs>
</svg>
