<svg width="16" height="16" viewBox="0 0 16 16" fill="none" xmlns="http://www.w3.org/2000/svg">
<path d="M1.60311 1.05563C1.46088 1.09209 1.38065 1.14678 1.24936 1.28899C1.15455 1.39108 1.05973 1.53694 1.03785 1.61351C0.986791 1.80312 0.986791 6.72925 1.0415 6.91886C1.08891 7.09024 1.29313 7.32359 1.49005 7.42934C1.63958 7.50956 1.65052 7.50956 4.18869 7.5205C7.06599 7.53144 6.98938 7.53873 7.26292 7.27255C7.54739 6.99543 7.54007 7.07565 7.54379 4.28259C7.54739 1.46401 7.55832 1.57705 7.25932 1.27076C7.1061 1.11397 7.04052 1.07386 6.87999 1.04104C6.57737 0.979054 1.84379 0.989993 1.60311 1.05563ZM6.93835 1.29628C7.0332 1.34368 7.13528 1.43484 7.19364 1.52235L7.2921 1.67185L7.30303 4.22061C7.31035 6.77301 7.31035 6.77301 7.23375 6.93709C7.1791 7.04283 7.09888 7.13399 6.98938 7.20328L6.82163 7.30902H4.26528H1.70886L1.54475 7.20328C1.43171 7.13399 1.35512 7.04648 1.30042 6.9298C1.22019 6.76207 1.22019 6.75478 1.22019 4.25707V1.74842L1.3223 1.56975C1.39159 1.44578 1.46817 1.36556 1.58487 1.30722L1.74897 1.21971H4.26163C6.74873 1.21971 6.77791 1.21971 6.93835 1.29628Z" fill="black"/>
<path d="M9.03869 1.03381C8.77608 1.09945 8.55368 1.31823 8.47707 1.58805C8.43335 1.7339 8.42964 6.62357 8.47346 6.87882C8.50986 7.10124 8.67039 7.33096 8.8563 7.4294C9.0059 7.50963 9.01312 7.50963 11.6425 7.52057C13.4258 7.52785 14.3265 7.51692 14.425 7.49139C14.6038 7.44399 14.8006 7.27262 14.9064 7.07571L14.9866 6.92622V4.26443C14.9866 1.73755 14.983 1.59534 14.9173 1.47502C14.8298 1.31093 14.6876 1.15779 14.549 1.08122C14.4505 1.02652 14.1843 1.01923 11.7957 1.01194C10.3406 1.00829 9.10066 1.01923 9.03869 1.03381Z" fill="black"/>
<path d="M1.59587 8.4757C1.38436 8.5231 1.20201 8.67259 1.08167 8.89501C1.02697 8.99346 1.01967 9.26694 1.00873 11.6443C0.997789 14.5686 0.99414 14.5103 1.23118 14.7401C1.49375 14.9952 1.35518 14.9843 4.21427 14.9952C6.74517 15.0063 6.79621 15.0026 6.99314 14.9297C7.23379 14.8385 7.43073 14.6379 7.50001 14.4118C7.53651 14.2879 7.54744 13.6936 7.54744 11.6844V9.11379L7.4599 8.92419C7.36876 8.71999 7.201 8.56685 6.98582 8.49027C6.88375 8.45381 6.28934 8.44287 4.28356 8.44287C2.8686 8.44652 1.65787 8.45746 1.59587 8.4757Z" fill="black"/>
<path d="M9.01374 8.48678C8.82784 8.54512 8.63812 8.70556 8.53966 8.88787L8.45944 9.04102L8.44851 11.6409C8.44119 13.3474 8.45222 14.2844 8.47769 14.3756C8.53605 14.5944 8.71473 14.8167 8.90806 14.9043C9.07942 14.9845 9.09035 14.9845 11.7234 14.9845H14.3673L14.5532 14.886C14.7793 14.7694 14.9216 14.5652 14.9727 14.2917C14.9945 14.1678 15.0055 13.1505 14.9982 11.5679L14.9872 9.04102L14.8887 8.87329C14.7721 8.67274 14.6007 8.53419 14.4037 8.47949C14.1923 8.42115 9.20346 8.42844 9.01374 8.48678Z" fill="black"/>
</svg>
