<svg width="157" height="38" viewBox="0 0 157 38" fill="none" xmlns="http://www.w3.org/2000/svg">
  <path d="M155.397 23.4514C151.019 25.7314 144.29 25.4057 140.873 21.6057C138.843 19.2171 137.775 16.1771 137.882 13.0286C137.775 9.55424 138.95 6.29713 141.3 3.79999C143.542 1.41142 146.64 0.108563 149.951 0.217135C151.873 0.108563 153.689 0.434277 155.504 1.19428V4.34285C153.796 3.3657 151.873 2.93142 149.951 2.93142C147.495 2.82285 145.251 3.79999 143.542 5.6457C141.834 7.6 140.979 10.2057 141.086 12.8114C140.979 15.3086 141.834 17.6971 143.436 19.6514C146.426 22.9086 151.98 22.8 155.504 20.52L155.397 23.4514Z" fill="#6E767A" />
  <path d="M133.29 24.4285H130.299V4.66851L117.696 24.4285H114.065V0.651367H117.162V20.1942L129.551 0.651367H133.29V24.4285Z" fill="#6E767A" />
  <path d="M110.541 3.36565H103.706V24.4285H100.715V3.36565H93.9863V0.651367H110.541V3.36565Z" fill="#6E767A" />
  <path d="M80.422 15.5258V24.4286H77.4316V0.542922H84.0535C86.1892 0.434351 88.3255 1.08578 89.9278 2.38864C91.423 3.80007 92.1706 5.75435 92.0635 7.70864C92.1706 9.88008 91.2095 11.943 89.6072 13.3543C87.8986 14.8743 85.7622 15.5258 83.5194 15.4172H80.422V15.5258ZM80.422 3.36578V12.9201H83.1988C84.694 13.0286 86.1892 12.5943 87.3645 11.6172C88.3255 10.6401 88.8596 9.3372 88.7525 8.03432C88.7525 4.99435 86.9367 3.47435 83.4123 3.47435L80.422 3.36578Z" fill="#6E767A" />
  <path d="M74.0145 24.4287H70.7035L68.3538 17.9144H58.6348L56.392 24.4287H53.0811L62.0525 0.542969H65.2566L74.0145 24.4287ZM67.2858 15.2001L63.3341 4.12583L59.3825 15.2001H67.2858Z" fill="#6E767A" />
  <path d="M58.7413 37.6745H57.7801V33.3316L56.1781 37.6745H55.3237L53.6148 33.3316V37.6745H52.8672V32.2458H54.042L55.7509 36.6973L57.4597 32.2458H58.7413V37.6745ZM64.8291 35.1773H61.0911C61.0911 35.7201 61.1978 36.1545 61.5183 36.4801C61.8386 36.8058 62.2658 37.023 62.7999 36.9145C63.4407 36.9145 63.9747 36.6973 64.4019 36.3716V37.2401C63.8679 37.5658 63.2271 37.783 62.4795 37.783C61.8386 37.783 61.0911 37.5658 60.6638 37.023C60.2366 36.4801 59.9162 35.7201 60.023 34.9601C60.023 34.2001 60.3434 33.4401 60.8774 32.8973C61.3046 32.3545 61.9455 32.0287 62.693 32.0287C63.3339 32.0287 63.8679 32.2458 64.2951 32.6801C64.7223 33.223 64.9359 33.983 64.8291 34.6345V35.1773ZM63.8679 34.4173C63.8679 33.983 63.7611 33.6573 63.5475 33.3316C63.3339 33.0058 62.9067 32.8973 62.5863 32.8973C62.2658 32.8973 61.8386 33.0058 61.6251 33.3316C61.3046 33.6573 61.1978 33.983 61.0911 34.4173H63.8679ZM70.2761 30.4001C70.0624 30.5087 69.8489 30.6173 69.6352 30.6173C69.1012 30.7258 68.5672 30.8345 68.0332 30.943C67.7128 31.0516 67.4992 31.2687 67.2856 31.5945C67.0719 32.1373 66.9652 32.5716 66.8584 33.223C67.2856 32.6801 67.9264 32.3545 68.674 32.3545C69.3148 32.3545 69.9557 32.5716 70.3829 33.1145C70.8101 33.6573 71.0237 34.3087 71.0237 35.0687C71.0237 35.8287 70.8101 36.4801 70.2761 37.023C69.8489 37.5658 69.1012 37.783 68.4604 37.783C67.7128 37.783 66.9652 37.4573 66.5379 36.9145C66.004 36.1545 65.7903 35.2858 65.8972 34.4173C65.8972 33.6573 66.004 33.0058 66.1107 32.2458C66.2175 31.8116 66.4312 31.2687 66.7516 30.943C66.9652 30.6173 67.2856 30.4001 67.7128 30.2916C68.3536 30.0745 68.8876 29.9658 69.5284 29.8573C69.742 29.8573 70.0624 29.7487 70.2761 29.6401V30.4001ZM66.7516 34.2001C66.6447 34.8516 66.7516 35.503 67.0719 36.1545C67.1788 36.3716 67.3924 36.6973 67.606 36.8058C67.8196 36.9145 68.14 37.023 68.3536 37.023C68.7808 37.023 69.208 36.8058 69.4217 36.4801C69.742 36.0458 69.8489 35.6116 69.8489 35.0687C69.9557 34.5258 69.742 34.0916 69.5284 33.6573C69.208 33.3316 68.7808 33.1145 68.3536 33.1145C67.7128 33.1145 67.0719 33.5487 66.7516 34.2001ZM76.5771 35.2858H72.8393C72.8393 35.7201 72.9461 36.263 73.2666 36.5887C73.5868 36.9145 74.0145 37.1316 74.5479 37.023C75.1891 37.023 75.7232 36.8058 76.1501 36.4801V37.3487C75.616 37.6745 74.9756 37.8916 74.228 37.8916C73.5868 37.8916 72.8393 37.6745 72.4121 37.1316C71.9849 36.5887 71.7713 35.8287 71.7713 35.0687C71.7713 34.3087 71.9849 33.5487 72.5189 33.0058C72.9461 32.463 73.5868 32.1373 74.3344 32.1373C74.9756 32.1373 75.5097 32.3545 75.9366 32.7887C76.3636 33.3316 76.5771 33.983 76.5771 34.743V35.2858ZM75.7232 34.4173C75.7232 33.983 75.616 33.6573 75.4026 33.3316C75.1891 33.0058 74.7621 32.8973 74.4415 32.8973C74.1209 32.8973 73.6939 33.0058 73.4804 33.3316C73.1597 33.6573 73.0529 33.983 72.9461 34.4173H75.7232ZM81.9173 37.6745H80.9562V33.0058H79.7817C79.7817 34.3087 79.4611 35.503 79.0341 36.6973C78.8206 37.3487 78.2865 37.783 77.6453 37.783C77.4318 37.783 77.3247 37.783 77.2183 37.6745V36.9145C77.3247 37.023 77.4318 37.023 77.6453 37.023C78.3929 37.023 78.927 35.3945 79.1405 32.2458H82.0244L81.9173 37.6745ZM83.6267 37.6745V32.2458H84.5878V34.3087H85.9758C86.4036 34.3087 86.9369 34.4173 87.2575 34.743C87.5781 35.0687 87.7916 35.503 87.7916 35.9373C87.7916 36.3716 87.6852 36.9145 87.2575 37.2401C86.9369 37.5658 86.5099 37.6745 85.9758 37.6745H83.6267ZM84.5878 35.1773V36.9145H85.8695C86.6171 36.9145 86.9369 36.5887 86.9369 35.9373C86.9369 35.2858 86.6171 35.0687 85.8695 35.0687L84.5878 35.1773ZM91.7438 37.6745V32.2458H94.2C94.627 32.2458 95.054 32.3545 95.4817 32.5716C95.8016 32.7887 95.9087 33.1145 95.9087 33.5487C95.9087 34.2001 95.4817 34.743 94.8405 34.8516C95.6952 34.9601 96.1222 35.3945 96.1222 36.1545C96.1222 36.5887 95.9087 37.023 95.5881 37.2401C95.2682 37.5658 94.7341 37.6745 94.3064 37.6745H91.7438ZM92.5977 33.0058V34.5258H93.8794C94.5206 34.5258 94.8405 34.3087 94.8405 33.7658C94.8405 33.223 94.5206 33.1145 93.9865 33.1145L92.5977 33.0058ZM92.5977 35.2858V36.9145H93.9865C94.627 36.9145 95.054 36.5887 95.054 36.0458C95.054 35.503 94.7341 35.2858 93.9865 35.2858H92.5977ZM97.6173 32.5716C98.1514 32.2458 98.7926 32.0287 99.4331 32.0287C100.715 32.0287 101.356 32.6801 101.356 34.0916V37.5658H100.394V36.6973C100.074 37.3487 99.4331 37.6745 98.6855 37.6745C98.2585 37.6745 97.8308 37.5658 97.4038 37.2401C97.0832 36.9145 96.9768 36.4801 96.9768 36.0458C96.9768 35.0687 97.6173 34.4173 98.7926 34.3087L100.394 34.0916C100.394 33.223 100.074 32.7887 99.3267 32.7887C98.6855 32.7887 98.045 33.0058 97.6173 33.4401V32.5716ZM99.2196 35.0687C98.899 35.0687 98.5791 35.1773 98.3649 35.3945C98.1514 35.6116 98.1514 35.8287 98.1514 36.0458C98.1514 36.263 98.2585 36.4801 98.472 36.6973C98.6855 36.9145 98.899 36.9145 99.2196 36.9145C99.6466 36.9145 99.9672 36.8058 100.288 36.4801C100.501 36.1545 100.715 35.8287 100.715 35.3945V34.8516L99.2196 35.0687ZM109.9 37.6745H102.958V32.2458H103.919V36.9145H105.948V32.2458H106.91V36.9145H108.939V32.2458H109.9V37.6745ZM115.881 35.1773H112.143C112.143 35.7201 112.25 36.1545 112.57 36.4801C112.89 36.8058 113.317 37.023 113.851 36.9145C114.493 36.9145 115.027 36.6973 115.56 36.3716V37.2401C115.027 37.5658 114.386 37.783 113.638 37.783C112.997 37.783 112.25 37.5658 111.822 37.023C111.395 36.4801 111.075 35.7201 111.182 34.9601C111.182 34.2001 111.395 33.4401 111.929 32.8973C112.356 32.3545 112.997 32.0287 113.745 32.0287C114.386 32.0287 114.92 32.2458 115.347 32.6801C115.774 33.223 115.988 33.8745 115.988 34.6345L115.881 35.1773ZM114.92 34.4173C114.92 33.983 114.812 33.6573 114.599 33.3316C114.386 33.0058 113.959 32.8973 113.638 32.8973C113.317 32.8973 112.89 33.0058 112.677 33.3316C112.356 33.6573 112.25 33.983 112.143 34.4173H114.92ZM120.153 33.0058H118.017V37.6745H117.056V32.2458H120.046L120.153 33.0058ZM120.9 34.9601C120.794 34.2001 121.115 33.3316 121.648 32.7887C122.182 32.2458 122.93 31.9201 123.677 32.0287C124.425 32.0287 125.066 32.2458 125.6 32.7887C126.561 33.983 126.561 35.7201 125.6 36.9145C124.532 38.0001 122.823 38.0001 121.755 36.9145C121.221 36.3716 120.9 35.6116 120.9 34.9601ZM121.862 34.9601C121.862 35.503 121.968 36.0458 122.289 36.4801C122.61 36.8058 123.037 37.023 123.571 37.023C123.998 37.023 124.532 36.8058 124.852 36.4801C125.387 35.503 125.387 34.4173 124.852 33.4401C124.532 33.1145 124.105 32.8973 123.571 32.8973C123.037 32.8973 122.61 33.1145 122.289 33.4401C122.076 33.8745 121.862 34.4173 121.862 34.9601ZM133.931 37.4573C132.862 38.1087 131.474 37.8916 130.62 37.023C130.086 36.4801 129.872 35.8287 129.872 35.0687C129.872 34.3087 130.086 33.4401 130.62 32.8973C131.154 32.3545 131.901 32.0287 132.649 32.0287C133.076 32.0287 133.504 32.1373 133.931 32.2458V33.223C133.61 32.8973 133.076 32.7887 132.649 32.7887C132.115 32.7887 131.688 33.0058 131.367 33.3316C131.047 33.7658 130.833 34.3087 130.833 34.8516C130.833 35.3945 130.94 35.9373 131.26 36.3716C132.008 37.023 133.076 37.1316 133.823 36.4801L133.931 37.4573ZM138.63 33.1145H137.028V37.783H136.066V33.1145H134.465V32.3545H138.63V33.1145ZM144.183 37.6745H143.329V33.5487L140.552 37.6745H139.591V32.2458H140.445V36.263L143.222 32.2458H144.183V37.6745ZM149.951 37.6745H148.989V33.0058H147.815C147.815 34.3087 147.494 35.503 147.067 36.6973C146.854 37.3487 146.32 37.783 145.572 37.783C145.465 37.783 145.251 37.783 145.145 37.6745V36.9145C145.251 37.023 145.359 37.023 145.572 37.023C146.32 37.023 146.854 35.3945 147.067 32.2458H150.058L149.951 37.6745ZM155.398 37.6745H154.437V35.503H153.795C153.476 35.503 153.155 35.8287 152.834 36.3716L152.194 37.783H151.126L151.98 36.1545C152.087 35.8287 152.407 35.503 152.728 35.3945C152.407 35.3945 151.98 35.1773 151.766 34.9601C151.553 34.743 151.446 34.3087 151.446 33.983C151.446 33.5487 151.66 33.1145 151.98 32.7887C152.407 32.463 152.941 32.3545 153.476 32.3545H155.398V37.6745ZM154.437 34.743V33.0058H153.476C152.728 33.0058 152.407 33.3316 152.407 33.8745C152.407 34.4173 152.728 34.743 153.476 34.743H154.437Z" fill="#6E767A" />
  <path d="M3.95184 0.651367H16.3409C16.9818 0.651367 17.5158 0.868513 18.0498 1.30279C18.477 1.73708 18.6906 2.38851 18.6906 3.03994V15.6342C18.6906 16.2856 18.477 16.8285 18.0498 17.3714C17.6226 17.8056 16.9818 18.1314 16.3409 18.0228H3.95184C3.31102 18.0228 2.77701 17.8056 2.3498 17.3714C1.92259 16.9371 1.70898 16.2856 1.70898 15.6342V3.03994C1.70898 2.38851 1.92259 1.84565 2.3498 1.30279C2.77701 0.868513 3.31102 0.651367 3.95184 0.651367ZM16.3409 1.30279H3.95184C3.52463 1.30279 3.09742 1.51994 2.77701 1.84565C2.45661 2.06279 2.243 2.49708 2.243 3.03994V15.6342C2.243 16.0685 2.45661 16.5028 2.77701 16.8285C3.09742 17.1542 3.52463 17.3714 3.95184 17.3714H16.3409C16.7681 17.3714 17.1953 17.1542 17.5158 16.8285C17.8362 16.5028 18.0498 16.0685 18.0498 15.6342V3.03994C18.0498 2.60565 17.8362 2.17137 17.5158 1.84565C17.1953 1.51994 16.7681 1.30279 16.3409 1.30279Z" fill="#6E767A" />
  <path fill-rule="evenodd" clip-rule="evenodd" d="M3.73762 20.3027H16.6607C17.8356 20.3027 18.7968 21.2799 18.7968 22.4742V35.5027C18.7968 36.697 17.8356 37.6742 16.6607 37.6742H3.73762C2.56279 37.6742 1.60156 36.697 1.60156 35.5027V22.4742C1.60156 21.1713 2.56279 20.3027 3.73762 20.3027Z" fill="#6E767A" />
  <path fill-rule="evenodd" clip-rule="evenodd" d="M23.0697 0.651367H35.9928C37.1676 0.651367 38.1288 1.62851 38.1288 2.82279V15.96C38.1288 17.1542 37.1676 18.1314 35.9928 18.1314H23.0697C21.8948 18.1314 20.9336 17.1542 20.9336 15.96V2.71422C20.9336 1.51994 21.8948 0.651367 23.0697 0.651367Z" fill="#6E767A" />
  <path fill-rule="evenodd" clip-rule="evenodd" d="M23.0697 20.3027H35.9928C37.1676 20.3027 38.1288 21.2799 38.1288 22.4742V35.5027C38.1288 36.697 37.1676 37.6742 35.9928 37.6742H23.0697C21.8948 37.6742 20.9336 36.697 20.9336 35.5027V22.4742C20.9336 21.1713 21.8948 20.3027 23.0697 20.3027Z" fill="#6E767A" />
</svg>